:SAMPLES-PER-SECOND 30
:FRAME-RANGE 1-2091
:FULLY-SPECIFIED
:DEGREES
1177
root  -16.213 38.2403 42.0811 -178.295 44.1427 -176.732
RightUpLeg  -12.2504 -8.88249 8.81967
RightLeg  25.7664 -9.5704 -2.42862
RightFoot  -14.6862 -0.212547 -3.87934
RightToes  5.82063e-011 0 -3.6325e-017
Spine  8.62743 0.390546 8.68299
Spine1  -0.0140987 2.00069 1.00421
HEad  5.77419 63.402 -3.90848
LeftShoulder1  1.36199 -1.01194 -23.9116
LeftArm  -4.94345 -38.8163 -30.9798
LeftForeArm  12.351 -22.0758 -4.73899
LeftHand  -0.277862 1.71389 8.63139
RightShoulder  13.1692 19.9851 49.0103
RightArm  7.67584 11.8019 16.0428
RightForeArm  18.0461 8.90377 13.5453
RightHand  0.213345 2.59896 2.89695
LeftUpLeg  -15.086 0.906408 10.9465
LeftLeg  64.0248 -0.302737 -0.0504098
LeftFoot  1.76528 1.13254 -9.93447
LeftToes  -6.27584e-011 -2.25241e-010 2.80627e-011
1178
root  -15.3092 38.4867 41.2785 -179.634 45.0522 -178.028
RightUpLeg  -8.50525 -6.8005 7.31145
RightLeg  23.5735 -11.03 -1.77705
RightFoot  -15.3111 -0.223258 -3.45523
RightToes  5.82063e-011 0 -3.6325e-017
Spine  8.47654 1.15565 8.84876
Spine1  -0.81326 2.98452 -0.846598
HEad  6.95665 61.0047 -3.84869
LeftShoulder1  1.36833 -1.01317 -24.0504
LeftArm  4.05642 -38.3798 -32.9942
LeftForeArm  10.0634 -22.4875 -4.72156
LeftHand  -0.270885 1.57268 8.11189
RightShoulder  13.8493 21.8628 47.6726
RightArm  11.3945 13.5233 16.7183
RightForeArm  12.9133 12.5494 11.8671
RightHand  0.208755 2.53679 2.8576
LeftUpLeg  -18.1127 -1.42125 9.37577
LeftLeg  61.9333 -0.0120982 0.559189
LeftFoot  -0.207314 0.865289 -8.85375
LeftToes  -6.27584e-011 -2.25241e-010 2.80627e-011
1179
root  -14.41 38.6661 40.4773 179.282 45.8046 -179.12
RightUpLeg  -4.91627 -5.64866 6.3009
RightLeg  21.2097 -11.7036 -1.25602
RightFoot  -15.9635 -0.231636 -3.0653
RightToes  5.82063e-011 0 -3.6325e-017
Spine  8.30857 1.90138 9.06451
Spine1  -1.49074 3.83456 -2.67214
HEad  7.79873 58.7353 -4.06575
LeftShoulder1  1.40513 -1.08777 -24.3755
LeftArm  12.3634 -36.3566 -35.5213
LeftForeArm  8.33679 -22.8755 -4.70074
LeftHand  -0.25827 1.51223 7.60913
RightShoulder  14.1852 23.3213 46.0975
RightArm  14.9941 15.1843 17.3261
RightForeArm  8.27095 15.9076 9.72824
RightHand  0.199672 2.66022 2.67265
LeftUpLeg  -20.7606 -2.749 8.19418
LeftLeg  57.8586 0.274298 0.987046
LeftFoot  -1.94342 0.720941 -8.61888
LeftToes  -6.27584e-011 -2.25241e-010 2.80627e-011
1180
root  -13.5213 38.8203 39.6833 178.333 46.5398 179.779
RightUpLeg  -1.49102 -5.31086 5.37264
RightLeg  18.7096 -11.4761 -0.734673
RightFoot  -16.4626 -0.233441 -2.73098
RightToes  5.82063e-011 0 -3.6325e-017
Spine  8.0338 2.54448 9.15997
Spine1  -1.9572 4.5383 -4.74018
HEad  8.75265 56.992 -3.99386
LeftShoulder1  1.42987 -1.08428 -24.964
LeftArm  19.952 -32.9324 -37.7359
LeftForeArm  6.50929 -22.8958 -4.80089
LeftHand  -0.255372 1.52859 7.55123
RightShoulder  14.4081 24.5078 44.7531
RightArm  17.9415 16.6956 17.9015
RightForeArm  4.13964 18.888 7.47312
RightHand  0.173606 2.47726 2.36528
LeftUpLeg  -22.7546 -2.86114 6.92409
LeftLeg  51.6368 0.290462 0.83785
LeftFoot  -3.39723 0.588669 -8.17584
LeftToes  -6.27584e-011 -2.25241e-010 2.80627e-011
1181
root  -12.6188 38.9576 38.9034 177.487 46.9966 178.698
RightUpLeg  2.10221 -4.96156 4.73716
RightLeg  15.5395 -11.3123 -0.619983
RightFoot  -16.5224 -0.210903 -2.19225
RightToes  5.82063e-011 0 -3.6325e-017
Spine  7.72516 3.1354 9.20274
Spine1  -2.11627 5.19079 -6.8215
HEad  6.72473 54.8395 -5.90943
LeftShoulder1  1.45552 -1.00322 -26.1394
LeftArm  25.3938 -28.3021 -39.41
LeftForeArm  6.48369 -21.9132 -5.29488
LeftHand  -0.26834 1.34493 7.60532
RightShoulder  14.3892 25.1106 43.6789
RightArm  19.3044 18.0348 18.0101
RightForeArm  2.27175 21.4158 5.63419
RightHand  0.177346 2.53146 2.39946
LeftUpLeg  -24.0248 -1.8085 5.30687
LeftLeg  43.1407 -0.162227 0.220423
LeftFoot  -3.53163 0.58265 -8.217
LeftToes  -6.27584e-011 -2.25241e-010 2.80627e-011
1182
root  -11.7419 39.0273 38.1297 177.526 47.4223 178.711
RightUpLeg  5.78786 -4.1478 5.13757
RightLeg  11.7717 -11.9692 -0.571496
RightFoot  -16.3151 -0.187834 -1.78476
RightToes  5.82063e-011 0 -3.6325e-017
Spine  7.19453 3.60167 9.50921
Spine1  -1.68018 5.71753 -8.30524
HEad  6.74598 54.6268 -6.13335
LeftShoulder1  1.49412 -0.848042 -28.2406
LeftArm  27.0517 -22.2006 -39.2511
LeftForeArm  9.39427 -20.005 -6.74928
LeftHand  -0.312137 0.837327 7.93651
RightShoulder  14.2986 25.6512 42.5098
RightArm  18.8424 18.8855 17.9253
RightForeArm  2.02244 23.8747 5.00177
RightHand  0.180471 2.50651 2.33921
LeftUpLeg  -24.4662 0.76988 4.0706
LeftLeg  33.2068 -2.43099 -1.36953
LeftFoot  -2.65556 0.739704 -9.51578
LeftToes  -6.27584e-011 -2.25241e-010 2.80627e-011
1183
root  -10.8708 39.0431 37.3293 176.987 47.4923 177.95
RightUpLeg  9.19113 -4.12327 4.4946
RightLeg  8.77828 -11.8217 -0.172642
RightFoot  -16.607 -0.171917 -1.29631
RightToes  5.82063e-011 0 -3.6325e-017
Spine  6.86628 3.88926 8.98063
Spine1  -1.18173 6.09725 -9.5221
HEad  4.62003 53.6493 -7.4318
LeftShoulder1  1.52311 -0.712543 -30.0646
LeftArm  23.3398 -15.1422 -38.0805
LeftForeArm  17.0823 -16.1955 -9.97833
LeftHand  -0.353078 0.691587 8.72444
RightShoulder  14.1517 25.9297 41.6002
RightArm  16.5588 19.1147 17.991
RightForeArm  4.02542 25.9278 5.35568
RightHand  0.179169 2.60748 2.39688
LeftUpLeg  -24.2396 4.03524 1.18899
LeftLeg  22.7647 -3.80303 -1.4279
LeftFoot  -2.05011 0.895347 -10.8438
LeftToes  -6.27584e-011 -2.25241e-010 2.80627e-011
1184
root  -9.99768 38.928 36.4531 176.356 47.1336 176.984
RightUpLeg  11.8364 -4.93826 3.19357
RightLeg  7.61393 -10.9042 0.425988
RightFoot  -17.743 -0.175555 -0.993345
RightToes  5.82063e-011 0 -3.6325e-017
Spine  6.65562 3.95403 7.82786
Spine1  -0.936702 6.18412 -10.1734
HEad  3.40254 54.1629 -7.43802
LeftShoulder1  1.4565 -0.433838 -30.9357
LeftArm  12.9805 -6.27982 -36.3255
LeftForeArm  29.7164 -11.1347 -12.8927
LeftHand  -0.397859 0.426299 9.33661
RightShoulder  13.9742 25.8385 41.1743
RightArm  15.2882 18.8215 18.1421
RightForeArm  5.9415 27.7592 5.67588
RightHand  0.164954 2.37695 2.27489
LeftUpLeg  -23.814 8.24059 -2.50326
LeftLeg  14.1187 -4.60976 -1.25011
LeftFoot  -2.13168 0.961881 -11.753
LeftToes  -6.27584e-011 -2.25241e-010 2.80627e-011
1185
root  -9.08004 38.7003 35.4811 176.363 46.7652 177.247
RightUpLeg  14.5644 -4.9511 3.15431
RightLeg  7.14986 -11.0232 0.416421
RightFoot  -18.9713 -0.101736 0.399523
RightToes  5.82063e-011 0 -3.6325e-017
Spine  5.7939 4.08686 7.92975
Spine1  0.370502 6.55666 -10.8477
HEad  1.56494 54.9943 -7.58814
LeftShoulder1  1.40224 -0.232553 -31.4765
LeftArm  4.48971 2.54011 -33.3268
LeftForeArm  38.5611 -5.78694 -14.7452
LeftHand  -0.435207 -0.0202939 9.40966
RightShoulder  13.578 25.1747 40.9304
RightArm  15.6158 18.2065 18.1065
RightForeArm  7.78282 29.0157 5.87328
RightHand  0.182051 2.56256 2.45621
LeftUpLeg  -22.8232 6.75279 -2.87627
LeftLeg  8.92543 3.06433 -1.6923
LeftFoot  -0.847532 1.07877 -11.662
LeftToes  -6.27584e-011 -2.25241e-010 2.80627e-011
1186
root  -8.06827 38.4123 34.401 176.389 46.2426 177.617
RightUpLeg  17.138 -5.09027 3.07836
RightLeg  7.65301 -11.1619 0.312203
RightFoot  -20.2734 0.0504543 2.40373
RightToes  5.82063e-011 0 -3.6325e-017
Spine  5.19619 4.23472 7.44682
Spine1  0.976591 6.72799 -10.6664
HEad  0.194664 56.7007 -6.83792
LeftShoulder1  1.27696 0.0410945 -30.8164
LeftArm  5.1635 12.5103 -29.7272
LeftForeArm  40.5088 -3.59504 -15.5699
LeftHand  -0.451342 -0.162805 9.51891
RightShoulder  13.0772 24.0409 41.0854
RightArm  16.839 16.5583 18.1316
RightForeArm  10.0442 29.8033 5.93766
RightHand  0.227504 2.80313 3.00893
LeftUpLeg  -22.4746 5.86234 -4.20467
LeftLeg  9.05206 6.28055 -1.36051
LeftFoot  1.83169 0.882954 -7.73623
LeftToes  -6.27584e-011 -2.25241e-010 2.80627e-011
1187
root  -7.01268 38.0956 33.2366 175.886 45.7674 177.603
RightUpLeg  19.5816 -5.99596 2.07669
RightLeg  9.4675 -9.55916 0.346228
RightFoot  -21.4245 0.284454 4.86881
RightToes  5.82063e-011 0 -3.6325e-017
Spine  4.6688 4.48285 6.55983
Spine1  1.72416 6.96178 -10.2418
HEad  -1.20855 58.5494 -5.77884
LeftShoulder1  1.11654 0.363429 -29.4718
LeftArm  14.3079 21.5738 -25.1084
LeftForeArm  36.7436 -4.33849 -16.2592
LeftHand  -0.460235 -0.495454 9.18461
RightShoulder  12.5464 22.4112 42.0077
RightArm  19.251 14.495 17.66
RightForeArm  10.7348 30.0399 5.95646
RightHand  0.248965 2.89873 3.26713
LeftUpLeg  -22.4566 5.10536 -6.2405
LeftLeg  12.8739 3.17707 0.0556909
LeftFoot  7.8265 -0.410237 2.14698
LeftToes  -6.27584e-011 -2.25241e-010 2.80627e-011
1188
root  -5.89258 37.7218 32.0983 174.389 44.6257 176.375
RightUpLeg  20.8282 -9.15956 -0.57878
RightLeg  14.5747 -5.6357 -0.348229
RightFoot  -22.6403 0.68503 8.4667
RightToes  5.82063e-011 0 -3.6325e-017
Spine  4.92032 4.62714 3.77037
Spine1  1.50765 6.66777 -8.50073
HEad  -3.21178 60.1952 -5.93694
LeftShoulder1  1.01349 0.570728 -28.448
LeftArm  29.6182 28.6846 -19.5173
LeftForeArm  28.1301 -7.61267 -16.2207
LeftHand  -0.502479 -0.764869 9.60245
RightShoulder  12.119 20.6268 43.7283
RightArm  22.8807 12.1314 17.0485
RightForeArm  9.51087 28.3139 5.61137
RightHand  0.214566 2.88893 2.78952
LeftUpLeg  -23.893 3.46108 -7.60724
LeftLeg  21.9484 3.22947 1.76088
LeftFoot  3.34467 -0.310013 2.24826
LeftToes  -6.27584e-011 -2.25241e-010 2.80627e-011
1189
root  -4.889 37.5884 31.0366 173.163 44.1787 175.394
RightUpLeg  20.3378 -12.5849 -3.693
RightLeg  21.9715 -0.703525 -0.531598
RightFoot  -20.8031 1.04798 14.309
RightToes  5.82063e-011 0 -3.6325e-017
Spine  5.13712 5.00363 2.73122
Spine1  2.19528 7.14482 -8.88057
HEad  -6.44722 60.9935 -7.2681
LeftShoulder1  0.924939 0.732582 -27.2367
LeftArm  50.7941 32.9441 -14.7695
LeftForeArm  12.5774 -11.6824 -15.3771
LeftHand  -0.380363 -0.36831 7.76109
RightShoulder  11.7366 18.8474 45.853
RightArm  27.6088 9.49034 16.5645
RightForeArm  5.15314 24.3065 4.93429
RightHand  0.198886 3.12123 2.48162
LeftUpLeg  -23.0996 4.30697 -8.45882
LeftLeg  26.3728 2.19873 1.52433
LeftFoot  -0.515 -0.255687 2.73095
LeftToes  -6.27584e-011 -2.25241e-010 2.80627e-011
1190
root  -4.08616 37.7274 30.0537 172.618 44.7188 174.063
RightUpLeg  15.8873 -14.2379 -7.21348
RightLeg  32.7268 1.50021 0.795138
RightFoot  -13.9799 0.392246 20.968
RightToes  5.82063e-011 0 -3.6325e-017
Spine  4.55778 5.38572 1.93438
Spine1  3.32452 7.63451 -10.0344
HEad  -7.66822 62.167 -8.50916
LeftShoulder1  0.843364 0.911116 -26.3581
LeftArm  67.2968 36.7671 -11.3228
LeftForeArm  0.557123 -14.7452 -13.9765
LeftHand  -0.431381 -0.9038 8.08851
RightShoulder  11.6324 17.8003 47.7483
RightArm  23.6212 7.74673 16.0918
RightForeArm  8.8638 16.4382 9.59267
RightHand  0.178779 3.14926 2.19801
LeftUpLeg  -21.6798 6.14548 -9.57708
LeftLeg  27.0434 1.38223 1.113
LeftFoot  -2.85418 -0.215335 3.13387
LeftToes  -6.27584e-011 -2.25241e-010 2.80627e-011
